<?xml version="1.0" standalone="no"?>
<!DOCTYPE svg PUBLIC "-//W3C//DTD SVG 20010904//EN"
 "http://www.w3.org/TR/2001/REC-SVG-20010904/DTD/svg10.dtd">
<svg version="1.0" xmlns="http://www.w3.org/2000/svg"
 width="161.000000pt" height="162.000000pt" viewBox="0 0 161.000000 162.000000"
 preserveAspectRatio="xMidYMid meet">
<metadata>
Created by potrace 1.10, written by Peter Selinger 2001-2011
</metadata>
<g transform="translate(0.000000,162.000000) scale(0.050000,-0.050000)"
fill="#ffffff" stroke="none">
<path d="M1554 2948 c-8 -8 -14 -238 -14 -510 l0 -496 -71 -34 c-267 -126
-223 -529 67 -602 95 -25 144 -3 144 65 0 36 -13 51 -55 60 -186 40 -257 190
-149 314 49 56 64 41 64 -64 0 -80 8 -104 41 -122 97 -51 100 -28 94 709 l-5
682 -51 6 c-28 3 -57 -1 -65 -8z"/>
<path d="M1220 2902 c-1143 -370 -1271 -1954 -200 -2479 853 -419 1920 208
1920 1128 0 168 -122 211 -136 47 -91 -1105 -1349 -1574 -2073 -774 -609 674
-258 1764 633 1964 69 16 109 82 75 123 -31 37 -83 35 -219 -9z"/>
<path d="M1243 2365 c-400 -200 -569 -709 -371 -1114 122 -249 460 -487 546
-384 36 44 7 84 -97 133 -519 243 -517 979 3 1242 126 64 155 101 116 148 -35
42 -74 37 -197 -25z"/>
<path d="M2064 2176 c-36 -36 -29 -92 16 -116 31 -17 47 -13 80 20 33 33 37
49 20 80 -24 45 -80 52 -116 16z"/>
<path d="M2311 1669 c-66 -67 6 -154 90 -108 66 35 29 139 -48 139 -6 0 -24
-14 -42 -31z"/>
<path d="M1812 1162 c-66 -72 35 -167 104 -98 33 33 30 67 -7 105 -41 40 -55
39 -97 -7z"/>
</g>
</svg>
